<svg version="1.1" id="Layer_1" xmlns="http://www.w3.org/2000/svg" xmlns:xlink="http://www.w3.org/1999/xlink" x="0px" y="0px"
	 width="100%" viewBox="0 0 800 800" enable-background="new 0 0 800 800" xml:space="preserve">
<path fill="#FFFFFF" opacity="1.000000" stroke="none" 
	d="
M512.000000,801.000000 
	C341.333344,801.000000 171.166672,801.000000 1.000000,801.000000 
	C1.000000,534.333313 1.000000,267.666656 1.000000,1.000000 
	C267.666656,1.000000 534.333313,1.000000 801.000000,1.000000 
	C801.000000,267.666656 801.000000,534.333313 801.000000,801.000000 
	C704.833313,801.000000 608.666687,801.000000 512.000000,801.000000 
M81.741837,489.425507 
	C61.248333,498.247437 43.563175,510.678040 29.244129,528.091675 
	C17.596975,542.256042 21.894979,549.380859 36.147812,555.988220 
	C61.063122,567.538635 87.620552,572.716797 114.772461,574.698730 
	C141.882751,576.677429 168.646271,573.457520 194.695587,565.841492 
	C205.951080,562.550720 217.027084,558.154785 227.540741,552.958130 
	C237.766357,547.903931 238.658844,540.264038 231.823029,531.259705 
	C217.174225,511.964111 198.373520,498.213409 175.431900,488.746552 
	C161.759460,483.509705 153.813263,473.855255 153.011230,458.477997 
	C160.645798,454.699219 168.280350,450.920441 176.792892,447.134766 
	C181.968536,446.002472 187.255310,445.230927 192.301010,443.676758 
	C217.010513,436.065918 235.724030,421.184692 245.469574,396.865082 
	C254.685791,373.866394 253.745804,349.871765 249.270538,326.066559 
	C245.465424,305.826141 236.708099,287.544159 224.260803,271.119171 
	C208.654922,250.526260 188.748001,235.843246 164.063873,227.844452 
	C145.454819,221.814270 126.534264,221.095993 107.393379,224.646606 
	C79.211823,229.874237 56.405056,244.384201 38.094612,265.963715 
	C20.325735,286.904907 9.908671,311.328766 6.604501,338.594269 
	C3.999398,360.091217 5.518759,381.409607 14.919976,401.119598 
	C28.489307,429.568237 52.792660,443.257477 83.596802,447.968506 
	C91.120758,451.656708 98.644714,455.344910 105.940529,459.801178 
	C104.435570,472.512512 98.461426,481.981995 86.308014,487.041870 
	C84.945923,487.608978 83.758003,488.594452 81.741837,489.425507 
M729.060303,493.734741 
	C717.202148,485.150604 710.694824,473.410889 708.894348,458.380981 
	C710.194214,457.430237 711.379883,456.235626 712.810974,455.565277 
	C734.728577,445.299316 749.453613,428.553070 757.572632,405.897705 
	C759.173096,401.431793 761.919067,399.351868 766.750732,399.025208 
	C778.837341,398.208160 787.552673,389.798309 790.680603,376.510956 
	C793.264832,365.532684 789.680847,357.382233 779.641724,350.043274 
	C779.836060,348.054474 779.947266,346.053467 780.237549,344.078766 
	C783.203674,323.900299 784.605591,303.692902 780.842834,283.466980 
	C777.064209,263.155640 768.832581,244.944443 751.393494,233.022568 
	C719.232483,211.036346 684.228760,207.275711 647.697876,220.369339 
	C634.825928,224.982956 624.495972,233.158051 619.362183,246.748459 
	C618.284790,249.600525 615.537964,252.197922 612.940857,254.038300 
	C597.263428,265.147675 588.478943,280.159576 587.224609,299.280579 
	C586.115417,316.188751 588.351501,332.832367 592.287720,349.903992 
	C591.233276,351.082153 590.158936,352.243195 589.128601,353.442078 
	C586.886658,356.050507 583.652954,358.328552 582.608887,361.356812 
	C577.227478,376.966034 586.175110,397.137543 605.624817,399.011749 
	C610.499939,399.481537 613.259644,401.743927 614.784180,406.061829 
	C622.896790,429.039734 637.975342,445.630554 660.157043,455.798157 
	C661.539429,456.431793 662.511108,457.961548 663.301208,459.839020 
	C661.339294,474.864502 653.718262,486.332550 640.608704,494.983521 
	C635.086426,498.356567 629.705811,501.993042 624.015137,505.052917 
	C607.429565,513.970825 592.773621,525.036133 580.713318,539.759399 
	C568.862732,554.226624 571.087036,561.067505 588.237793,569.912781 
	C588.385498,569.988953 588.545593,570.040466 588.697937,570.107971 
	C617.577759,582.913391 648.092346,588.447937 679.407043,589.629456 
	C705.385925,590.609619 730.858765,586.522156 755.867981,579.583252 
	C767.915894,576.240417 779.788757,572.427063 790.284973,565.296631 
	C798.500977,559.715271 800.377380,553.143677 794.182983,545.488953 
	C787.106506,536.744263 779.700989,527.809387 770.826843,521.083557 
	C757.744934,511.168640 743.238342,503.133575 729.060303,493.734741 
M541.986755,562.519592 
	C541.881409,556.524902 541.752380,550.530579 541.675598,544.535522 
	C541.513550,531.884277 540.850037,519.212524 541.333862,506.585236 
	C542.684875,471.326019 544.509399,436.084869 546.159424,400.837219 
	C546.992126,383.049072 547.856873,365.262390 548.698303,347.474670 
	C549.568298,329.086182 548.719543,310.778809 543.723999,293.003510 
	C533.346985,256.079376 512.996277,225.894882 480.526123,204.990524 
	C446.236694,182.914886 410.054871,179.470993 372.783112,197.388702 
	C364.431000,201.403839 357.027649,207.512802 348.521332,211.060654 
	C333.561157,217.300308 321.702393,226.867935 312.395477,239.919281 
	C291.135010,269.733368 283.094910,303.803467 281.366516,339.565674 
	C280.533112,356.809692 281.158478,374.187195 282.170532,391.442810 
	C283.738953,418.183716 286.633453,444.847626 288.156128,471.590240 
	C289.440552,494.148804 289.730927,516.770081 290.131348,539.369507 
	C290.272369,547.330200 289.435089,555.308228 288.859070,563.905029 
	C280.593414,576.329590 281.912842,583.274841 294.817444,590.804321 
	C301.396057,594.642700 308.319794,598.380676 315.575409,600.469421 
	C332.786499,605.424316 350.163177,609.982788 367.705109,613.564270 
	C389.483948,618.010742 411.719208,619.630798 433.801392,617.027039 
	C454.556305,614.579712 475.216125,610.858826 495.680298,606.566223 
	C511.006012,603.351562 525.639893,597.574158 538.903137,588.889832 
	C543.124451,586.125793 547.004395,582.345764 546.630981,577.354675 
	C546.278992,572.650208 543.562256,568.122681 541.986755,562.519592 
z"/>
<path fill="#FF6773" opacity="1.000000" stroke="none" 
	d="
M289.044495,563.278381 
	C289.435089,555.308228 290.272369,547.330200 290.131348,539.369507 
	C289.730927,516.770081 289.440552,494.148804 288.156128,471.590240 
	C286.633453,444.847626 283.738953,418.183716 282.170532,391.442810 
	C281.158478,374.187195 280.533112,356.809692 281.366516,339.565674 
	C283.094910,303.803467 291.135010,269.733368 312.395477,239.919281 
	C321.702393,226.867935 333.561157,217.300308 348.521332,211.060654 
	C357.027649,207.512802 364.431000,201.403839 372.783112,197.388702 
	C410.054871,179.470993 446.236694,182.914886 480.526123,204.990524 
	C512.996277,225.894882 533.346985,256.079376 543.723999,293.003510 
	C548.719543,310.778809 549.568298,329.086182 548.698303,347.474670 
	C547.856873,365.262390 546.992126,383.049072 546.159424,400.837219 
	C544.509399,436.084869 542.684875,471.326019 541.333862,506.585236 
	C540.850037,519.212524 541.513550,531.884277 541.675598,544.535522 
	C541.752380,550.530579 541.881409,556.524902 541.653809,562.791931 
	C537.048767,558.209595 533.034241,553.094666 528.450256,548.554810 
	C519.140015,539.334167 509.469727,530.494324 497.035156,524.854004 
	C487.278259,519.332214 478.011810,513.393066 468.036560,509.101379 
	C454.846527,503.426575 446.772217,494.325165 444.236084,480.245239 
	C443.590637,476.661865 443.973419,474.369202 448.208618,472.633240 
	C464.764282,465.847107 478.022736,454.661133 487.999512,439.857666 
	C500.989014,420.583771 505.905975,399.293457 501.902618,376.325104 
	C499.174622,360.673767 492.840515,346.338562 481.908783,334.729919 
	C474.778351,327.157990 465.732208,321.395966 458.557587,313.858551 
	C445.633606,300.281036 433.421051,286.022949 421.003296,271.967896 
	C409.364594,258.794617 399.528290,253.941971 381.990570,260.861572 
	C379.060089,262.017822 375.490570,261.498352 372.233948,261.897278 
	C367.597443,262.465302 362.654022,262.336487 358.418091,263.985718 
	C349.896545,267.303528 344.170746,274.240540 339.601532,281.889099 
	C327.191376,302.662811 323.068024,325.806702 322.262024,349.444946 
	C321.836182,361.934937 323.736298,374.541046 325.059113,387.044678 
	C326.746429,402.994019 330.900970,418.386444 338.454071,432.566986 
	C348.422272,451.281738 363.788757,464.310486 383.031097,473.002533 
	C384.395050,473.618652 385.998871,475.909424 385.872986,477.271942 
	C384.796204,488.924530 381.148712,499.408295 370.070282,505.384613 
	C357.809875,511.998535 345.373322,518.285950 332.684265,524.854736 
	C325.473816,529.884949 318.072571,534.198547 311.840729,539.810669 
	C303.754883,547.092346 296.600067,555.407898 289.044495,563.278381 
z"/>
<path fill="#3C427D" opacity="1.000000" stroke="none" 
	d="
M83.155350,447.544739 
	C52.792660,443.257477 28.489307,429.568237 14.919976,401.119598 
	C5.518759,381.409607 3.999398,360.091217 6.604501,338.594269 
	C9.908671,311.328766 20.325735,286.904907 38.094612,265.963715 
	C56.405056,244.384201 79.211823,229.874237 107.393379,224.646606 
	C126.534264,221.095993 145.454819,221.814270 164.063873,227.844452 
	C188.748001,235.843246 208.654922,250.526260 224.260803,271.119171 
	C236.708099,287.544159 245.465424,305.826141 249.270538,326.066559 
	C253.745804,349.871765 254.685791,373.866394 245.469574,396.865082 
	C235.724030,421.184692 217.010513,436.065918 192.301010,443.676758 
	C187.255310,445.230927 181.968536,446.002472 176.489563,446.819641 
	C177.245438,445.445221 178.258026,444.334106 179.370728,443.334351 
	C202.244843,422.782593 210.871872,396.196472 213.152390,366.412292 
	C214.109970,353.906036 209.377991,346.432373 198.454605,341.838257 
	C197.842102,341.580658 197.267227,341.234497 196.670258,340.938782 
	C172.116760,328.776398 146.204208,323.789703 118.850060,325.717133 
	C99.376572,327.089325 80.849503,331.694458 63.190903,340.055084 
	C51.599110,345.543365 42.043015,352.061951 45.788891,367.245789 
	C45.866608,367.560822 45.786152,367.911591 45.812561,368.243073 
	C47.223400,385.951660 50.439369,403.139587 59.385468,418.868927 
	C65.637009,429.860657 73.987320,439.018829 83.155350,447.544739 
z"/>
<path fill="#FF9796" opacity="1.000000" stroke="none" 
	d="
M779.420471,350.904541 
	C789.680847,357.382233 793.264832,365.532684 790.680603,376.510956 
	C787.552673,389.798309 778.837341,398.208160 766.750732,399.025208 
	C761.919067,399.351868 759.173096,401.431793 757.572632,405.897705 
	C749.453613,428.553070 734.728577,445.299316 712.810974,455.565277 
	C711.379883,456.235626 710.194214,457.430237 708.368835,458.705505 
	C706.395752,459.255341 704.911987,459.347107 703.506287,459.727203 
	C692.163391,462.794098 680.848328,463.133667 669.486328,459.761017 
	C667.643311,459.213928 665.615967,459.287659 663.673828,459.074402 
	C662.511108,457.961548 661.539429,456.431793 660.157043,455.798157 
	C637.975342,445.630554 622.896790,429.039734 614.784180,406.061829 
	C613.259644,401.743927 610.499939,399.481537 605.624817,399.011749 
	C586.175110,397.137543 577.227478,376.966034 582.608887,361.356812 
	C583.652954,358.328552 586.886658,356.050507 589.128601,353.442078 
	C590.158936,352.243195 591.233276,351.082153 592.603149,349.788330 
	C595.238586,349.775299 597.561890,349.829620 599.877808,349.990662 
	C604.619324,350.320374 606.747742,347.529846 607.925110,343.459167 
	C611.599304,330.755676 614.868164,317.912109 619.135193,305.409882 
	C622.764221,294.777191 628.789185,285.399597 638.499023,279.083862 
	C641.508240,277.126526 645.443359,276.440735 648.156128,274.204315 
	C663.722473,261.371490 681.298584,259.355042 700.162109,264.008789 
	C723.109436,269.670135 735.666077,289.225067 738.024902,311.183624 
	C738.913086,319.452240 740.291626,327.518402 744.849304,334.782013 
	C749.484192,342.168671 756.137085,347.090973 764.135437,349.612732 
	C768.893250,351.112793 774.303528,350.543488 779.420471,350.904541 
z"/>
<path fill="#CD7A7A" opacity="1.000000" stroke="none" 
	d="
M83.376076,447.756622 
	C73.987320,439.018829 65.637009,429.860657 59.385468,418.868927 
	C50.439369,403.139587 47.223400,385.951660 45.812561,368.243073 
	C45.786152,367.911591 45.866608,367.560822 45.788891,367.245789 
	C42.043015,352.061951 51.599110,345.543365 63.190903,340.055084 
	C80.849503,331.694458 99.376572,327.089325 118.850060,325.717133 
	C146.204208,323.789703 172.116760,328.776398 196.670258,340.938782 
	C197.267227,341.234497 197.842102,341.580658 198.454605,341.838257 
	C209.377991,346.432373 214.109970,353.906036 213.152390,366.412292 
	C210.871872,396.196472 202.244843,422.782593 179.370728,443.334351 
	C178.258026,444.334106 177.245438,445.445221 176.050568,446.823059 
	C168.280350,450.920441 160.645798,454.699219 152.365479,458.757996 
	C144.376038,459.693756 137.031113,460.878296 129.688995,460.861267 
	C121.847511,460.842987 114.008667,459.690491 106.168671,459.033081 
	C98.644714,455.344910 91.120758,451.656708 83.376076,447.756622 
z"/>
<path fill="#5D8EFE" opacity="1.000000" stroke="none" 
	d="
M497.210114,525.169739 
	C509.469727,530.494324 519.140015,539.334167 528.450256,548.554810 
	C533.034241,553.094666 537.048767,558.209595 541.603394,563.290771 
	C543.562256,568.122681 546.278992,572.650208 546.630981,577.354675 
	C547.004395,582.345764 543.124451,586.125793 538.903137,588.889832 
	C525.639893,597.574158 511.006012,603.351562 495.680298,606.566223 
	C475.216125,610.858826 454.556305,614.579712 433.801392,617.027039 
	C411.719208,619.630798 389.483948,618.010742 367.705109,613.564270 
	C350.163177,609.982788 332.786499,605.424316 315.575409,600.469421 
	C308.319794,598.380676 301.396057,594.642700 294.817444,590.804321 
	C281.912842,583.274841 280.593414,576.329590 288.951782,563.591675 
	C296.600067,555.407898 303.754883,547.092346 311.840729,539.810669 
	C318.072571,534.198547 325.473816,529.884949 333.015320,525.014832 
	C340.605316,528.251465 347.386597,531.848877 354.491821,534.613892 
	C379.299774,544.268127 405.150146,545.900696 431.443695,544.294983 
	C454.850006,542.865662 476.856354,536.939270 497.210114,525.169739 
z"/>
<path fill="#3D427E" opacity="1.000000" stroke="none" 
	d="
M729.338501,494.297882 
	C743.238342,503.133575 757.744934,511.168640 770.826843,521.083557 
	C779.700989,527.809387 787.106506,536.744263 794.182983,545.488953 
	C800.377380,553.143677 798.500977,559.715271 790.284973,565.296631 
	C779.788757,572.427063 767.915894,576.240417 755.867981,579.583252 
	C730.858765,586.522156 705.385925,590.609619 679.407043,589.629456 
	C648.092346,588.447937 617.577759,582.913391 588.697937,570.107971 
	C588.545593,570.040466 588.385498,569.988953 588.237793,569.912781 
	C571.087036,561.067505 568.862732,554.226624 580.713318,539.759399 
	C592.773621,525.036133 607.429565,513.970825 624.015137,505.052917 
	C629.705811,501.993042 635.086426,498.356567 641.322754,494.951508 
	C645.128235,496.026550 648.287598,496.974976 651.299561,498.267151 
	C667.182617,505.081146 683.736633,507.246613 700.551941,503.649475 
	C710.365234,501.550232 719.757080,497.480865 729.338501,494.297882 
z"/>
<path fill="#4A58B6" opacity="1.000000" stroke="none" 
	d="
M176.020416,489.148804 
	C198.373520,498.213409 217.174225,511.964111 231.823029,531.259705 
	C238.658844,540.264038 237.766357,547.903931 227.540741,552.958130 
	C217.027084,558.154785 205.951080,562.550720 194.695587,565.841492 
	C168.646271,573.457520 141.882751,576.677429 114.772461,574.698730 
	C87.620552,572.716797 61.063122,567.538635 36.147812,555.988220 
	C21.894979,549.380859 17.596975,542.256042 29.244129,528.091675 
	C43.563175,510.678040 61.248333,498.247437 82.499580,489.585022 
	C100.870071,498.758484 119.511276,501.773895 139.183899,500.109283 
	C152.311859,498.998505 164.545151,495.504608 176.020416,489.148804 
z"/>
<path fill="#FFB45B" opacity="1.000000" stroke="none" 
	d="
M779.531128,350.473907 
	C774.303528,350.543488 768.893250,351.112793 764.135437,349.612732 
	C756.137085,347.090973 749.484192,342.168671 744.849304,334.782013 
	C740.291626,327.518402 738.913086,319.452240 738.024902,311.183624 
	C735.666077,289.225067 723.109436,269.670135 700.162109,264.008789 
	C681.298584,259.355042 663.722473,261.371490 648.156128,274.204315 
	C645.443359,276.440735 641.508240,277.126526 638.499023,279.083862 
	C628.789185,285.399597 622.764221,294.777191 619.135193,305.409882 
	C614.868164,317.912109 611.599304,330.755676 607.925110,343.459167 
	C606.747742,347.529846 604.619324,350.320374 599.877808,349.990662 
	C597.561890,349.829620 595.238586,349.775299 592.727051,349.448425 
	C588.351501,332.832367 586.115417,316.188751 587.224609,299.280579 
	C588.478943,280.159576 597.263428,265.147675 612.940857,254.038300 
	C615.537964,252.197922 618.284790,249.600525 619.362183,246.748459 
	C624.495972,233.158051 634.825928,224.982956 647.697876,220.369339 
	C684.228760,207.275711 719.232483,211.036346 751.393494,233.022568 
	C768.832581,244.944443 777.064209,263.155640 780.842834,283.466980 
	C784.605591,303.692902 783.203674,323.900299 780.237549,344.078766 
	C779.947266,346.053467 779.836060,348.054474 779.531128,350.473907 
z"/>
<path fill="#F58182" opacity="1.000000" stroke="none" 
	d="
M729.199402,494.016296 
	C719.757080,497.480865 710.365234,501.550232 700.551941,503.649475 
	C683.736633,507.246613 667.182617,505.081146 651.299561,498.267151 
	C648.287598,496.974976 645.128235,496.026550 641.680420,494.859741 
	C653.718262,486.332550 661.339294,474.864502 663.487549,459.456726 
	C665.615967,459.287659 667.643311,459.213928 669.486328,459.761017 
	C680.848328,463.133667 692.163391,462.794098 703.506287,459.727203 
	C704.911987,459.347107 706.395752,459.255341 708.227783,459.045837 
	C710.694824,473.410889 717.202148,485.150604 729.199402,494.016296 
z"/>
<path fill="#BE6868" opacity="1.000000" stroke="none" 
	d="
M175.726166,488.947693 
	C164.545151,495.504608 152.311859,498.998505 139.183899,500.109283 
	C119.511276,501.773895 100.870071,498.758484 82.873322,489.565216 
	C83.758003,488.594452 84.945923,487.608978 86.308014,487.041870 
	C98.461426,481.981995 104.435570,472.512512 106.054596,459.417114 
	C114.008667,459.690491 121.847511,460.842987 129.688995,460.861267 
	C137.031113,460.878296 144.376038,459.693756 152.124939,459.049225 
	C153.813263,473.855255 161.759460,483.509705 175.726166,488.947693 
z"/>
<path fill="#FF9796" opacity="1.000000" stroke="none" 
	d="
M497.035156,524.854004 
	C476.856354,536.939270 454.850006,542.865662 431.443695,544.294983 
	C405.150146,545.900696 379.299774,544.268127 354.491821,534.613892 
	C347.386597,531.848877 340.605316,528.251465 333.344482,524.875610 
	C345.373322,518.285950 357.809875,511.998535 370.070282,505.384613 
	C381.148712,499.408295 384.796204,488.924530 385.872986,477.271942 
	C385.998871,475.909424 384.395050,473.618652 383.031097,473.002533 
	C363.788757,464.310486 348.422272,451.281738 338.454071,432.566986 
	C330.900970,418.386444 326.746429,402.994019 325.059113,387.044678 
	C323.736298,374.541046 321.836182,361.934937 322.262024,349.444946 
	C323.068024,325.806702 327.191376,302.662811 339.601532,281.889099 
	C344.170746,274.240540 349.896545,267.303528 358.418091,263.985718 
	C362.654022,262.336487 367.597443,262.465302 372.233948,261.897278 
	C375.490570,261.498352 379.060089,262.017822 381.990570,260.861572 
	C399.528290,253.941971 409.364594,258.794617 421.003296,271.967896 
	C433.421051,286.022949 445.633606,300.281036 458.557587,313.858551 
	C465.732208,321.395966 474.778351,327.157990 481.908783,334.729919 
	C492.840515,346.338562 499.174622,360.673767 501.902618,376.325104 
	C505.905975,399.293457 500.989014,420.583771 487.999512,439.857666 
	C478.022736,454.661133 464.764282,465.847107 448.208618,472.633240 
	C443.973419,474.369202 443.590637,476.661865 444.236084,480.245239 
	C446.772217,494.325165 454.846527,503.426575 468.036560,509.101379 
	C478.011810,513.393066 487.278259,519.332214 497.035156,524.854004 
z"/>
</svg>